<svg xmlns:dc="http://purl.org/dc/elements/1.1/" xmlns:cc="http://creativecommons.org/ns#"
    xmlns:rdf="http://www.w3.org/1999/02/22-rdf-syntax-ns#" xmlns:svg="http://www.w3.org/2000/svg"
    xmlns="http://www.w3.org/2000/svg" xmlns:sodipodi="http://sodipodi.sourceforge.net/DTD/sodipodi-0.dtd"
    xmlns:inkscape="http://www.inkscape.org/namespaces/inkscape" viewBox="0 0 32 40.00000125" version="1.1" x="0px"
    y="0px">
    <g transform="translate(0,-1020.3622)">
        <path
            style="text-indent:0;text-transform:none;direction:ltr;block-progression:tb;baseline-shift:baseline;color:#ffbd69;enable-background:accumulate;"
            d="M 16 0 C 7.1693687 0 -1.1564823e-018 7.1694003 0 16 C 0 24.8306 7.1693687 32 16 32 C 24.830641 32 32 24.8306 32 16 C 32 7.1694003 24.830641 0 16 0 z M 16 1 C 24.290194 1 31 7.7098003 31 16 C 31 24.2902 24.290194 31 16 31 C 7.709815 31 1 24.2902 1 16 C 1 7.7098003 7.709815 1 16 1 z M 15.96875 5.40625 C 14.86233 5.40625 13.81423 5.58925 12.8125 5.90625 L 15.71875 8 L 18.6875 5.78125 C 17.81788 5.54925 16.90959 5.40625 15.96875 5.40625 z M 19.6875 6.09375 C 19.6589 6.14075 19.606 6.18525 19.5625 6.21875 L 16.21875 8.71875 L 16.375 12.40625 L 19.65625 14.75 L 22.6875 13.59375 L 24.15625 9.5625 C 24.17145 9.5305 24.17195 9.5063 24.21875 9.375 C 23.03383 7.9048 21.48416 6.76945 19.6875 6.09375 z M 11.8125 6.25 C 10.04467 7.0113 8.55194 8.2684 7.4375 9.8125 L 7.40625 9.8125 L 7.4375 9.90625 L 8.9375 13.71875 L 8.96875 13.71875 L 12.34375 14.71875 L 15.5 12.4375 L 15.34375 8.8125 L 11.875 6.3125 C 11.8505 6.2945 11.8327 6.273 11.8125 6.25 z M 24.84375 10.21875 L 23.5625 13.71875 L 26.5625 16.125 L 26.59375 16.09375 C 26.59387 16.07375 26.59375 16.05125 26.59375 16.03125 C 26.5937 16.00425 26.59875 15.9635 26.59375 15.9375 C 26.57725 13.8323 25.92304 11.86705 24.84375 10.21875 z M 6.8125 10.71875 C 5.91377 12.28105 5.40625 14.10365 5.40625 16.03125 C 5.40625 16.12825 5.40375 16.2161 5.40625 16.3125 L 8.15625 14.03125 L 6.8125 10.71875 z M 15.9375 13.1875 L 12.875 15.40625 L 14.0625 19 L 17.84375 19.0625 L 19.0625 15.40625 L 15.9375 13.1875 z M 23.03125 14.40625 L 19.90625 15.59375 L 18.625 19.46875 L 19.9375 21.875 L 24.1875 22.28125 C 24.2782 22.29125 24.36842 22.3157 24.4375 22.375 C 25.55911 20.8982 26.31611 19.1252 26.53125 17.1875 C 26.39858 17.1105 26.34079 17.0646 26.25 17 L 23.03125 14.40625 z M 8.84375 14.59375 L 5.53125 17.375 C 5.52225 17.385 5.5093 17.368 5.5 17.375 C 5.69386 18.8872 6.20749 20.3207 6.96875 21.5625 L 7.15625 21.53125 L 11.40625 21.59375 L 13.21875 19.3125 L 12 15.5 L 8.84375 14.59375 z M 13.90625 19.875 L 12.0625 22.15625 L 13.34375 26.09375 C 13.35995 26.14375 13.3775 26.1973 13.375 26.25 C 14.20834 26.4608 15.06936 26.59375 15.96875 26.59375 C 16.50859 26.59375 17.04379 26.54675 17.5625 26.46875 C 17.5502 26.38875 17.56285 26.29325 17.59375 26.21875 L 19.21875 22.40625 L 17.875 19.9375 L 13.90625 19.875 z M 7.5625 22.40625 C 8.78288 24.00875 10.44492 25.27145 12.375 25.96875 L 11.25 22.46875 L 7.5625 22.40625 z M 20 22.75 L 18.53125 26.28125 C 20.59474 25.77255 22.41939 24.67225 23.8125 23.15625 L 23.8125 23.125 L 20 22.75 z "
            transform="translate(-5e-7,1020.3622)" fill="#ffbd69" fill-opacity="1" stroke="none" marker="none"
            visibility="visible" display="inline" overflow="visible" />
    </g>
</svg>