<?xml version="1.0" encoding="utf-8"?>
<!-- Generator: Adobe Illustrator 24.0.1, SVG Export Plug-In . SVG Version: 6.00 Build 0)  -->
<svg version="1.1" xmlns="http://www.w3.org/2000/svg" xmlns:xlink="http://www.w3.org/1999/xlink" x="0px" y="0px"
	 viewBox="0 0 16 16" style="enable-background:new 0 0 16 16;" xml:space="preserve">
<style type="text/css">
	.st0{fill:#FFFFFF;}
	.st1{fill:#27323A;}
	.st2{fill:#A3F7BF;}
	.st3{font-family:'MyriadPro-Regular';}
	.st4{font-size:3.2649px;}
</style>
<g id="Layer_2">
	<!-- <path class="st0" d="M15,16H1c-0.55,0-1-0.45-1-1V1c0-0.55,0.45-1,1-1h14c0.55,0,1,0.45,1,1v14C16,15.55,15.55,16,15,16z"/> -->
</g>
<g id="Layer_1">
	<g>
		<path class="st1" d="M8.01,0C6.5,0,5.03,0.43,3.75,1.24C3.38,1.47,3.27,1.96,3.5,2.34c0.24,0.37,0.73,0.49,1.1,0.25
			c0.79-0.5,1.68-0.81,2.6-0.93v1.61C4.61,3.7,2.85,6.15,3.27,8.75c0.06,0.34,0.15,0.67,0.28,0.99c0.16,0.41,0.63,0.61,1.04,0.45
			c0.41-0.16,0.61-0.62,0.45-1.03C4.38,7.51,5.19,5.63,6.85,4.97s3.53,0.15,4.19,1.81c0.66,1.66-0.15,3.53-1.81,4.19
			c-0.76,0.3-1.62,0.3-2.38,0c-0.41-0.16-0.87,0.04-1.03,0.46c-0.16,0.41,0.04,0.87,0.45,1.03c0.31,0.12,0.62,0.21,0.95,0.26v1.62
			c-3.5-0.43-5.98-3.62-5.55-7.12C1.77,6.29,2.09,5.39,2.6,4.6c0.24-0.37,0.12-0.87-0.25-1.1c-0.37-0.24-0.87-0.12-1.1,0.25
			C-1.11,7.48,0,12.41,3.74,14.76c2.6,1.64,5.92,1.64,8.52,0c0.37-0.24,0.49-0.73,0.25-1.1c-0.24-0.37-0.73-0.49-1.1-0.25l0,0
			c-0.79,0.5-1.68,0.81-2.6,0.93v-1.61c2.61-0.44,4.37-2.91,3.93-5.52c-0.34-2.01-1.92-3.59-3.93-3.93V1.66
			c3.5,0.43,5.98,3.62,5.55,7.12c-0.12,0.93-0.44,1.83-0.94,2.62c-0.24,0.37-0.12,0.87,0.25,1.1s0.87,0.12,1.1-0.25
			c2.35-3.73,1.24-8.66-2.49-11.02C11,0.43,9.52,0,8.01,0z"/>
	</g>
	<g>
		<path class="st2" d="M1.84,6.1L1.9,6.12c0.02-0.07,0.04-0.14,0.07-0.21L1.91,5.9L1.73,3.61C1.78,3.53,1.84,3.45,1.9,3.37
			C1.64,3.38,1.39,3.51,1.24,3.75C-1.13,7.48,0,12.41,3.74,14.76c2.6,1.64,5.92,1.64,8.52,0c0.37-0.24,0.49-0.73,0.25-1.1
			c-0.18-0.29-0.51-0.42-0.82-0.36l-1.45,2.03c-0.7,0.22-1.46,0.33-2.23,0.33c-0.83,0-1.61-0.13-2.34-0.37L4.3,13.26l0.02-0.03
			c-0.05-0.04-0.1-0.07-0.15-0.11l-0.04,0.05L1.8,12.52c-0.92-1.27-1.48-2.88-1.48-4.56"/>
		<path class="st2" d="M9.83,10.65l0.92,1.28c0.05-0.03,0.09-0.07,0.14-0.1l-0.93-1.28C9.92,10.59,9.88,10.62,9.83,10.65z"/>
		<path class="st2" d="M4.93,7.11C4.95,7.04,4.97,6.97,4.99,6.9l-1.52-0.5C3.45,6.47,3.43,6.54,3.41,6.61L4.93,7.11z"/>
		<path class="st2" d="M11.08,6.9c0.02,0.06,0.04,0.11,0.06,0.17l1.46-0.48c-0.02-0.06-0.03-0.11-0.05-0.17L11.08,6.9z"/>
		<path class="st2" d="M14.77,12.25c2.35-3.73,1.24-8.66-2.49-11.02C11,0.43,9.52,0,8.01,0C6.5,0,5.03,0.43,3.75,1.24
			c-0.23,0.15-0.36,0.4-0.37,0.65c0.7-0.53,1.5-0.95,2.36-1.22l2.18,0.87v3.21c0.06,0,0.12-0.01,0.18,0V1.56l2.18-0.87
			c1.55,0.48,2.92,1.46,3.88,2.75L14.1,5.91l-0.04,0.01c0.02,0.06,0.04,0.11,0.05,0.17l0.04-0.01l1.5,1.83c0,0.02,0,0.06,0,0.07
			c0.02,1.7-0.54,3.25-1.46,4.52l-0.31,0.09C14.21,12.69,14.58,12.56,14.77,12.25z"/>
	</g>
	<polyline class="st2" points="5.61,7.11 8.01,5.36 10.41,7.14 9.51,9.96 9.46,9.96 6.55,9.96 6.5,9.96 5.59,7.16 	"/>
	<text transform="matrix(1.0179 0 0 1 7.3047 9.0471)" class="st1 st3 st4">?</text>
</g>
</svg>
