<svg xmlns="http://www.w3.org/2000/svg" viewBox="0 0 80.06 80"><defs><style>.cls-1{fill:#27323a;}.cls-2{fill:#a3f7bf;}</style></defs><title>icon</title><g id="Layer_1" data-name="Layer 1"><path class="cls-1" d="M40.16.9C32.63.9,26,2.16,19.65,6.18c-1.87,1.18-3.5,3.31-2,5.8a4,4,0,0,0,5.51,1.25,32,32,0,0,1,13-4.65v8.08A23.89,23.89,0,0,0,17.9,49a4,4,0,0,0,7.45-2.92,16.14,16.14,0,1,1,9,9,4,4,0,0,0-2.92,7.44,24.22,24.22,0,0,0,4.73,1.31V72A31.92,31.92,0,0,1,13.14,23.29a4,4,0,0,0-1.25-5.52c-1.87-1.18-3.81-.27-5,1.6C-4.87,38,.09,61.69,18.75,73.46c13,8.22,28.85,8.6,41.87.38,1.87-1.17,3.07-2.86,1.9-4.73s-3.43-2.92-5.3-1.74h0a32.09,32.09,0,0,1-13,4.64V63.93a24,24,0,0,0,0-47.27V8.57A31.92,31.92,0,0,1,67.28,57.3a4,4,0,0,0,1.25,5.52c1.87,1.18,3.89.1,5.07-1.77,11.77-18.66,6-42.69-12.69-54.47A37.41,37.41,0,0,0,40.16.9Z" transform="translate(-0.16 -0.3)"/></g><g id="Layer_1_copy" data-name="Layer 1 copy"><path class="cls-2" d="M9.37,30.78l.28.1c.11-.35.22-.69.34-1l-.25-.08L8.81,18.32c.27-.39.55-.78.84-1.16A4,4,0,0,0,6.37,19,40,40,0,0,0,61.48,74.13a4,4,0,0,0-2.86-7.31L51.38,77a38.26,38.26,0,0,1-22.9-.19L21.65,66.61l.12-.16c-.26-.18-.51-.37-.76-.56l-.19.26L9.18,62.92A39.17,39.17,0,0,1,1.79,40.11" transform="translate(-0.16 -0.3)"/><path class="cls-2" d="M49.33,53.56,54,60l.69-.51L50,53.06C49.79,53.23,49.57,53.4,49.33,53.56Z" transform="translate(-0.16 -0.3)"/><path class="cls-2" d="M24.81,35.84c.1-.34.21-.69.33-1l-7.59-2.48c-.12.34-.23.68-.34,1Z" transform="translate(-0.16 -0.3)"/><path class="cls-2" d="M55.56,34.82c.1.27.2.55.28.83l7.3-2.39c-.09-.28-.17-.56-.27-.84Z" transform="translate(-0.16 -0.3)"/><path class="cls-2" d="M74.05,61.57A40,40,0,0,0,18.94,6.46a4,4,0,0,0-1.87,3.27A38.8,38.8,0,0,1,28.85,3.64L39.75,8V24c.31,0,.62,0,.92,0V8.07l10.9-4.34A38.39,38.39,0,0,1,71,17.49l-.28,12.37-.19.06c.1.28.18.56.27.84l.2-.07,7.48,9.14v.37a37.7,37.7,0,0,1-7.29,22.63l-1.56.46A4,4,0,0,0,74.05,61.57Z" transform="translate(-0.16 -0.3)"/><polyline class="cls-2" points="28.05 35.53 40.04 26.79 52.07 35.68 47.56 49.82 47.33 49.8 32.76 49.8 32.5 49.82 27.94 35.8"/></g><g id="Layer_4" data-name="Layer 4"><path class="cls-1" d="M39,42.42,39,42a3.7,3.7,0,0,1,1-2.82,3.57,3.57,0,0,0,1.17-2.24c0-.83-.53-1.39-1.58-1.4a3,3,0,0,0-1.68.5l-.4-1a4.45,4.45,0,0,1,2.38-.65c1.91,0,2.77,1.16,2.77,2.4a4.38,4.38,0,0,1-1.43,2.84,3.19,3.19,0,0,0-.94,2.4v.43Zm-.37,2.28a1,1,0,0,1,1-1,1,1,0,1,1-1,1Z" transform="translate(-0.16 -0.3)"/></g></svg>

