<svg xmlns="http://www.w3.org/2000/svg" viewBox="0 0 100 100">
    <path
        d="M76.2845,19.7174a39.7885,39.7885,0,0,0-51.7214-4.082,2.001,2.001,0,0,0,2.3515,3.2382A35.9749,35.9749,0,0,1,83.952,46H75.898a27.9673,27.9673,0,0,0-55.796,0H12.0607a35.922,35.922,0,0,1,6.8111-19.0855,1.9982,1.9982,0,1,0-3.2343-2.3476A39.9354,39.9354,0,0,0,71.4369,80.3643a2.001,2.001,0,0,0-2.3515-3.2382A35.9749,35.9749,0,0,1,12.048,50h8.0777a28.0143,28.0143,0,0,0,3.25,11.3357,2,2,0,0,0,3.5155-1.9062A23.9934,23.9934,0,0,1,46,24.1018v8.1006A15.9637,15.9637,0,1,0,64,48a15.2649,15.2649,0,0,0-.4492-3.59,2.0009,2.0009,0,0,0-3.8905.9375A11.1032,11.1032,0,0,1,60,48,12,12,0,1,1,48,36a11.711,11.711,0,0,1,5.1717,1.2616A2,2,0,1,0,54.93,33.6682,15.9775,15.9775,0,0,0,50,32.24V24.1018a23.99,23.99,0,1,1-15.6989,43.587,2,2,0,1,0-2.289,3.2812A27.9573,27.9573,0,0,0,75.898,50h8.0413a35.922,35.922,0,0,1-6.8111,19.0855,1.9982,1.9982,0,1,0,3.2343,2.3476A39.7732,39.7732,0,0,0,76.2845,19.7174Z" />
</svg>