<svg id="player_card" xmlns="http://www.w3.org/2000/svg" xmlns:xlink="http://www.w3.org/1999/xlink" viewBox="0 0 501.99 797.56"><defs><style>.cls-1{fill:url(#radial-gradient);}.cls-2{fill:#20c6b6;}.cls-3{fill:#29a19c;}.cls-4{fill:#1fffef;}</style><radialGradient id="radial-gradient" cx="13.39" cy="454.48" fx="-78.69445766444379" r="605.93" gradientUnits="userSpaceOnUse"><stop offset="0" stop-color="#fff"/><stop offset="0.15" stop-color="#e2e1e1" stop-opacity="0.88"/><stop offset="0.37" stop-color="#bbbaba" stop-opacity="0.73"/><stop offset="0.57" stop-color="#9c9b9c" stop-opacity="0.61"/><stop offset="0.75" stop-color="#868585" stop-opacity="0.53"/><stop offset="0.9" stop-color="#797778" stop-opacity="0.47"/><stop offset="1" stop-color="#747273" stop-opacity="0.45"/></radialGradient></defs><title>player_card</title><path id="ligth" class="cls-1" d="M-235.89-272.91l1.44,141.42c.36,55.24-.86,112.12.37,167.79-1.52,53.66-.19,110.21-.71,164.63,2.54,35.67-7.18,88.38,13.64,100.43C-146.54,333.43-59.93,352.18,8,393c67.93-40.78,154.54-59.53,229.15-91.6,20.82-12.05,11.1-64.76,13.64-100.43-.52-54.42.81-111-.71-164.63,1.23-55.67,0-112.55.37-167.79l1.44-141.42c.49-13.17-11.49,9.39-88.37-54.25L135-348.51c-24.51-19.07-62.61-28.81-63.65-25.34-3.55,11.89-21.69,17.22-27.42,17C26-357.51,8-381.47,8-381.47s-18,24-35.92,24.63c-5.73.21-23.87-5.12-27.42-17-1-3.47-39.14,6.27-63.65,25.34l-28.53,21.35C-224.4-263.52-236.38-286.08-235.89-272.91Z" transform="translate(242.99 392)"/><g id="middle"><path class="cls-2" d="M255-279.76c-33.11-.68-59.25-31-86.05-44.83-1.81-.93-3.62-1.79-5.45-2.57,76.88,63.64,88.86,41.08,88.37,54.25l-1.44,141.42c-.36,55.24.86,112.12-.37,167.79,1.52,53.66.19,110.21.71,164.63,0-.08,0-.17,0-.25l2.59-10.83C254,184,251.63,134,255.9,134v-413.9l-.88,0Z" transform="translate(242.99 392)"/><path class="cls-2" d="M-238.17,204.32s3.55,2.27,3.53-.51c-.16-21.2-.79-120.06.56-167.51-1.23-55.67,0-112.55-.37-167.79l-1.44-141.42c-.49-13.17,11.49,9.39,88.37-54.25-1.83.78-3.64,1.64-5.45,2.57-26.8,13.85-52.94,44.15-86.05,44.83v-.19l-.88,0V134" transform="translate(242.99 392)"/></g><g id="bottom"><path class="cls-3" d="M252.21,145.33c-.6,11.68.53,29.34.63,42.25,0,5.94-.47,6.5-1.43,10.56,0-.7-.62,3.49-.62,2.79-2.54,35.67,7.18,88.38-13.64,100.43C162.54,333.43,75.93,352.18,8,393v12.6H9c75.53-70.85,238.23-87.79,246.47-107.37,7.67-18.21.43-115.91.43-166.57V134C252.9,132.89,252.48,137.81,252.21,145.33Z" transform="translate(242.99 392)"/><path class="cls-3" d="M-221.15,301.36c-20.82-12.05-11-62.31-13.5-98,0,.69,0,.18-.15-.37a64,64,0,0,1-2-15.44c.1-12.91,1.23-30.57.63-42.25-.27-7.52-.69-12.44-3.69-11.36v-2.35c0,50.66-7.24,148.36.43,166.57C-231.23,317.77-68.53,334.71,7,405.56H8V393C-59.91,352.19-146.54,333.43-221.15,301.36Z" transform="translate(242.99 392)"/></g><g id="top"><path class="cls-4" d="M43.92-356.84c5.73.21,23.87-5.12,27.42-17,1-3.47,39.14,6.27,63.65,25.34l28.53,21.35q2.73,1.16,5.45,2.57c27.63,14.2,53.14,44.26,86.05,44.64v0l.88,0v-4c-52.53-.93-125-92.68-180.06-96.35-6.09-.41-8.15-1-8.43.28-3,13.45-17.35,16.9-24,16.58C26.29-363.47,8-392,8-392v10.53S26-357.51,43.92-356.84Z" transform="translate(242.99 392)"/><path class="cls-4" d="M-27.44-363.38c-6.62.32-20.95-3.13-24-16.58-.28-1.26-2.34-.69-8.43-.28-55.07,3.67-127.53,95.42-180.06,96.35v4l.88,0v0c32.91-.38,58.42-30.44,86.05-44.64q2.72-1.41,5.45-2.57L-119-348.51c24.51-19.07,62.61-28.81,63.65-25.34,3.55,11.89,21.69,17.22,27.42,17,17.91-.67,36-24.71,36-24.71L8-392S-10.29-363.47-27.44-363.38Z" transform="translate(242.99 392)"/></g></svg>