<?xml version="1.0" standalone="no"?>
<!DOCTYPE svg PUBLIC "-//W3C//DTD SVG 20010904//EN"
 "http://www.w3.org/TR/2001/REC-SVG-20010904/DTD/svg10.dtd">
<svg version="1.0" xmlns="http://www.w3.org/2000/svg"
 width="700.000000pt" height="700.000000pt" viewBox="0 0 700.000000 700.000000"
 preserveAspectRatio="xMidYMid meet">
<metadata>
Created by potrace 1.11, written by Peter Selinger 2001-2013
</metadata>
<g transform="translate(0.000000,700.000000) scale(0.100000,-0.100000)"
fill="#000000" stroke="none">
<path d="M2375 6661 c-292 -107 -552 -243 -804 -420 l-93 -66 5 -52 c15 -145
118 -261 266 -299 108 -27 176 -10 323 79 214 130 481 239 748 307 112 28 277
60 313 60 16 0 17 -23 17 -350 l0 -350 -22 -4 c-460 -93 -819 -284 -1123 -597
-121 -124 -208 -234 -287 -362 -82 -131 -206 -401 -190 -411 4 -2 148 -49 320
-105 173 -56 319 -104 326 -107 7 -3 17 11 25 33 41 119 138 282 245 412 220
268 591 460 946 490 l75 6 3 696 c2 550 -1 698 -10 706 -10 7 -879 356 -943
379 -5 2 -68 -18 -140 -45z"/>
<path d="M4018 6508 l-478 -191 0 -692 0 -693 23 -6 c12 -3 41 -6 63 -6 135 0
364 -65 532 -150 268 -137 487 -358 622 -629 23 -47 48 -101 55 -120 7 -20 17
-35 21 -35 26 4 610 197 618 205 13 12 -70 208 -144 338 -292 515 -794 885
-1374 1015 l-101 23 -3 353 -2 353 57 -7 c178 -21 446 -92 641 -170 649 -261
1172 -750 1477 -1381 34 -71 77 -169 96 -217 18 -49 36 -88 41 -88 4 0 8 24 8
53 0 28 5 203 10 387 5 184 10 405 11 491 l3 157 -66 83 c-376 481 -935 877
-1528 1083 -56 20 -103 36 -103 36 -1 -1 -217 -87 -479 -192z"/>
<path d="M789 5469 l-32 -51 38 -499 c32 -405 42 -499 53 -497 7 2 29 44 48
93 48 124 130 289 207 419 36 59 71 131 78 158 17 72 7 167 -25 232 -53 107
-184 196 -290 196 -42 0 -46 -2 -77 -51z"/>
<path d="M6180 4332 c0 -4 9 -39 20 -77 35 -121 68 -295 86 -445 20 -177 15
-547 -11 -705 -62 -388 -173 -696 -379 -1054 -70 -121 -81 -162 -74 -260 8
-113 90 -230 195 -278 l52 -24 71 22 71 21 68 102 c356 530 540 1097 567 1743
l6 158 -328 402 c-181 221 -332 402 -336 402 -5 1 -8 -2 -8 -7z"/>
<path d="M471 3924 l-331 -405 0 -69 c0 -259 66 -660 154 -940 72 -226 194
-507 303 -695 81 -139 183 -286 206 -295 12 -5 186 -55 387 -110 201 -56 420
-117 488 -136 112 -32 142 -35 142 -16 0 4 -41 41 -91 82 -214 176 -459 457
-604 694 -398 649 -516 1438 -327 2174 27 105 29 122 12 122 -4 0 -156 -182
-339 -406z"/>
<path d="M1471 4032 c-100 -377 -86 -798 40 -1175 48 -145 72 -189 134 -246
74 -68 123 -86 235 -86 76 0 104 4 142 22 112 52 196 172 205 297 4 53 -1 81
-40 202 -25 77 -53 183 -63 235 -22 125 -22 335 1 459 9 52 19 109 21 125 l5
30 -291 95 c-160 52 -308 100 -329 107 l-39 11 -21 -76z"/>
<path d="M5174 4008 l-302 -99 19 -72 c46 -177 49 -411 10 -604 -65 -316 -226
-585 -482 -809 l-57 -49 150 -205 c83 -113 174 -238 202 -277 l53 -73 69 57
c318 259 569 641 684 1040 63 219 75 313 75 578 -1 253 -8 321 -58 520 -19 73
-27 90 -43 92 -10 1 -155 -44 -320 -99z"/>
<path d="M3456 4089 c-22 -5 -66 -21 -98 -36 l-58 -26 0 -68 0 -69 46 30 c67
42 140 64 209 64 72 -1 118 -22 145 -67 44 -72 17 -137 -106 -257 -99 -96
-113 -128 -114 -247 l0 -93 65 0 65 0 1 48 c2 132 6 141 122 261 93 97 108
117 123 167 31 108 -14 213 -117 269 -48 26 -65 30 -149 32 -52 1 -113 -2
-134 -8z"/>
<path d="M3470 3130 l0 -90 75 0 75 0 0 90 0 90 -75 0 -75 0 0 -90z"/>
<path d="M4220 2289 c-162 -94 -366 -158 -571 -180 -187 -20 -406 8 -609 76
-125 42 -209 46 -294 14 -76 -28 -148 -96 -187 -175 -27 -55 -32 -77 -33 -142
-1 -101 24 -169 88 -239 27 -30 70 -65 95 -77 66 -34 255 -93 361 -113 l90
-18 0 -352 c0 -335 -1 -353 -18 -353 -39 0 -213 33 -337 65 -306 77 -662 238
-888 402 -35 26 -45 30 -40 16 3 -10 140 -216 302 -457 335 -497 286 -448 497
-502 302 -78 591 -110 923 -101 294 8 522 40 768 108 l113 31 315 441 c173
242 313 442 311 444 -7 8 -87 -28 -151 -67 -176 -108 -423 -218 -640 -284
-122 -38 -388 -96 -437 -96 l-28 0 0 349 0 350 58 11 c106 21 272 71 385 116
179 72 413 205 403 229 -2 7 -92 134 -199 283 l-194 270 -83 -49z"/>
</g>
</svg>
